<svg viewBox="0 0 24 15" xmlns="http://www.w3.org/2000/svg"><path d="M12.44 9.15h-1.66l1.04-6.42h1.66l-1.04 6.42zm7.61-6.22c-.36-.14-.93-.29-1.63-.29-1.8 0-3.07.96-3.08 2.33-.01 1.01.91 1.57 1.6 1.91.71.34.95.56.95.87 0 .47-.56.68-1.08.68-.72 0-1.11-.11-1.69-.37l-.24-.11-.25 1.57c.43.2 1.22.37 2.03.38 1.91.01 3.16-.94 3.17-2.39.01-.8-.48-1.41-1.52-1.92-.63-.32-.82-.53-.82-.85 0-.3.33-.61 1.05-.61.61-.01 1.06.13 1.4.28l.17.08.26-1.57zm2.71-.2h-1.28c-.4 0-.7.12-.87.54l-3.01 7.21h1.75l.35-.96h2.14l.2.96h1.54l-1.34-7.75h-.48zm-1.01 5.09l.64-1.74.37 1.74h-1.01zm-15.02-5.09l-1.63 7.75h1.66l1.04-7.75h-1.07zm-1.42 0h-2.58l-.02.11c2.01.51 3.34 1.73 3.89 3.22l.56-2.85-2.22-1.99z" fill="#1A1F71"/></svg>
